#!OML:ASF F:\VICON\USERDATA\INSTALL\rory3\rory3.ASF
:FULLY-SPECIFIED
:DEGREES
26
root 0.7286030000627501 17.83456412899625 4.011493453481441 -1.3146500202631608 0.7723259751889704 4.162881796959104
lfemur 10.313814130875627 -2.221119152669655 -28.55185271696078
ltibia 15.72200952552512
lfoot -15.651041102376801 1.245107198025975
ltoes -2.3019750706507
rfemur -27.33638448143462 6.36975283005788 14.947357268284156
rtibia 19.69797535544695
rfoot -6.927214050988428 -15.833510201053784
rtoes -2.230648697459513
lowerback 9.508641351731644 -0.747088332325183 -5.229531985523567
upperback 0.32550902169961904 -1.5736005615426158 0.6851991715560232
thorax -4.812574414797384 -0.6476926206761012 3.626638985972204
lowerneck -16.972915614091868 -2.834655295030414 -2.3193844645392496
upperneck 20.92751620033291 -3.5414377576970377 0.7762277717270926
head 9.463336514164215 -1.7465133016213656 0.21198943950133856
lclavicle -2.657496631154367e-15 -3.228250422685108e-16
lhumerus -22.713407546128565 -4.995922779437609 82.39010181028061
lradius 29.752074769484935
lwrist 6.922753595647068
lhand -27.517533315314715 27.19080745671752
lfingers 7.1250199999999975
lthumb -0.9199053679262748 57.16607799401889
rclavicle -2.657496631154367e-15 -3.228250422685108e-16
rhumerus -30.690739036496566 -21.186880069248552 -77.7712664723395
rradius 22.079378079646048
rwrist 7.728023821096409
rhand -17.22254691579356 23.027602319053962
rfingers 7.1250199999999975
rthumb 9.020452930736262 -6.816373210081336
27
root 0.5880804824904964 17.762212299115372 4.118271007513397 -1.103146793125294 1.6992020534570296 3.846974761571895
lfemur 12.731290702098796 -2.8597291252285295 -27.82668183162944
ltibia 16.15336379038176
lfoot -15.191082600961739 -0.11123311421773618
ltoes -5.753656041948592
rfemur -26.944509664960993 6.825917257107748 15.089727087454362
rtibia 16.958037896411213
rfoot -6.871456814793819 -14.439855608836297
rtoes -3.205714997862683
lowerback 9.383962897182021 -1.0106417958364702 -5.307871031110473
upperback 0.29666963921408807 -1.9064192042486239 0.9177909953938171
thorax -4.755330162385621 -0.8120215062767343 3.9149889226502625
lowerneck -17.093081159815608 -2.832021399828761 -2.2464914996589163
upperneck 20.937942196759302 -3.5344902670072815 0.7057423996435972
head 9.484224651548892 -1.7444172542140048 0.1690830830609346
lclavicle -2.7974846227999184e-15 -4.161986784404013e-16
lhumerus -21.79289199336062 -5.261692422905275 82.50623988367728
lradius 30.482587541142166
lwrist 7.169660794611425
lhand -28.199273317292306 25.972551957497004
lfingers 7.1250199999999975
lthumb -1.5783077832776171 55.94392248853659
rclavicle -2.7974846227999184e-15 -4.161986784404013e-16
rhumerus -31.480749470073015 -23.01913837978494 -76.80411134050117
rradius 21.13704915158037
rwrist 8.894650769015723
rhand -17.60082367503726 22.446040486801916
rfingers 7.1250199999999975
rthumb 8.655432540630882 -7.372300815656579
28
root 0.46916195575795805 17.704510191107406 5.008560182173832 -1.2973233541125428 2.160751067627105 2.9238355974924635
lfemur 12.87640690087095 -3.801276912657109 -26.724753287279036
ltibia 20.08904643844358
lfoot -13.430455239653906 -2.2185104502487736
ltoes -11.208980410297668
rfemur -27.371117979969895 6.136506660538183 16.47855722626357
rtibia 20.48005042066724
rfoot -7.006922323954846 -10.964077656279471
rtoes -2.5549681544618736
lowerback 9.420377819920533 -1.190315130994207 -4.927990785922915
upperback 0.30312994631313006 -2.0782215328618574 1.2414650539037027
thorax -4.808448129817985 -0.9018792673081034 3.8925552130980083
lowerneck -17.27415162556523 -2.833559488892347 -2.213778910435358
upperneck 20.92910081690201 -3.5312198497994376 0.5517822261592503
head 9.504564980609661 -1.7439968100540448 0.11487721577806215
lclavicle -3.508654471311587e-15 -8.905573441081282e-16
lhumerus -22.04833351516172 -4.95021797954763 82.81086750321437
lradius 30.77131698547687
lwrist 7.000616486020607
lhand -29.143594550196216 24.28263757905606
lfingers 7.1250199999999975
lthumb -2.4903091880323247 54.239277874109085
rclavicle -3.508654471311587e-15 -8.905573441081282e-16
rhumerus -32.284390325498954 -24.929124067354277 -75.77680357789471
rradius 20.169900229135283
rwrist 10.20863850287521
rhand -17.806559427306656 22.20375623746871
rfingers 7.1250199999999975
rthumb 8.456886703343057 -7.682801860940465
29
root 0.3261830687474869 17.71678532300015 5.110126360071448 -1.786910140101607 2.2685950127223817 1.6691427824709275
lfemur 12.123061115817844 -4.103869652507065 -24.758700238059326
ltibia 28.406552702184992
lfoot -8.355698576070912 -5.4317580000642005
ltoes -15.4692595669739
rfemur -26.94495955061695 5.41431214278528 19.10000213481898
rtibia 26.438202094738223
rfoot -5.786655673690191 -7.085423505880905
rtoes 1.0604925816048234
lowerback 9.54798423045691 -1.2618405435837392 -3.8685566596925556
upperback 0.31901994530827726 -2.0372681084032824 1.7259130513370013
thorax -4.882874383522776 -0.8980339969122301 3.829533518498098
lowerneck -17.334177478832128 -2.7642479390218213 -2.15001153290533
upperneck 21.075146145450056 -3.4011660129317964 0.26683287033552616
head 9.555678646397043 -1.7052844710134627 0.05803894632884285
lclavicle -3.3252718344833728e-15 -7.682389664718389e-16
lhumerus -22.80441708598521 -4.03181349485984 83.2767065194685
lradius 30.94086445534178
lwrist 7.108820993570207
lhand -29.470725487090245 24.104848811903
lfingers 7.1250199999999975
lthumb -2.8062511787799784 54.05342169641361
rclavicle -3.3252718344833728e-15 -7.682389664718389e-16
rhumerus -32.912767308718315 -26.49262996439638 -74.645686358541
rradius 19.254448200919565
rwrist 12.015511847918177
rhand -17.732933361953457 22.101767520591796
rfingers 7.1250199999999975
rthumb 8.527860889789308 -7.800098776465444
